<svg width="24" height="24" viewBox="0 0 24 24" fill="none" xmlns="http://www.w3.org/2000/svg">
<path fill-rule="evenodd" clip-rule="evenodd" d="M20.289 12.6592L11.811 12.6592C11.4188 12.6592 11.1005 12.3409 11.1005 11.9487C11.1005 11.5565 11.4188 11.2382 11.811 11.2382L20.289 11.2382C20.6812 11.2382 20.9995 11.5565 20.9995 11.9487C20.9995 12.3409 20.6812 12.6592 20.289 12.6592Z" fill="#CDCDD0"/>
<path fill-rule="evenodd" clip-rule="evenodd" d="M11.811 17.3969C11.6783 17.3969 11.5476 17.36 11.432 17.288L3.9137 12.5502C3.70717 12.4195 3.58117 12.193 3.58117 11.9486C3.58117 11.7042 3.70717 11.4778 3.9137 11.347L11.432 6.60924C11.6509 6.47187 11.9275 6.46335 12.1539 6.58935C12.3813 6.7144 12.5215 6.95219 12.5215 7.21082L12.5215 16.6864C12.5215 16.945 12.3813 17.1828 12.1539 17.3079C12.0469 17.3676 11.9284 17.3969 11.811 17.3969Z" fill="#040415"/>
</svg>
