<svg width="24" height="24" viewBox="0 0 24 24" fill="none" xmlns="http://www.w3.org/2000/svg">
<path fill-rule="evenodd" clip-rule="evenodd" d="M22 16.0841V7.91612C22 4.37712 19.724 2.00012 16.335 2.00012H7.665C4.276 2.00012 2 4.37712 2 7.91612V16.0841C2 19.6221 4.277 22.0001 7.666 22.0001H16.335C19.724 22.0001 22 19.6221 22 16.0841Z" fill="#CDCDD0"/>
<path fill-rule="evenodd" clip-rule="evenodd" d="M16.2794 11.1446L12.5314 7.3796C12.2494 7.0966 11.7504 7.0966 11.4674 7.3796L7.71943 11.1446C7.42743 11.4386 7.42843 11.9136 7.72243 12.2056C8.01643 12.4976 8.49043 12.4976 8.78343 12.2036L11.2504 9.7266V16.0816C11.2504 16.4966 11.5864 16.8316 12.0004 16.8316C12.4144 16.8316 12.7504 16.4966 12.7504 16.0816V9.7266L15.2164 12.2036C15.3634 12.3506 15.5554 12.4236 15.7484 12.4236C15.9394 12.4236 16.1314 12.3506 16.2774 12.2056C16.5704 11.9136 16.5714 11.4386 16.2794 11.1446Z" fill="#040415"/>
</svg>
