<svg width="24" height="24" viewBox="0 0 24 24" fill="none" xmlns="http://www.w3.org/2000/svg">
<path fill-rule="evenodd" clip-rule="evenodd" d="M2 7.91588V16.0839C2 19.6229 4.276 21.9999 7.665 21.9999H16.335C19.724 21.9999 22 19.6229 22 16.0839V7.91588C22 4.37788 19.723 1.99988 16.334 1.99988H7.665C4.276 1.99988 2 4.37788 2 7.91588Z" fill="#CDCDD0"/>
<path fill-rule="evenodd" clip-rule="evenodd" d="M7.72057 12.8554L11.4686 16.6204C11.7506 16.9034 12.2496 16.9034 12.5326 16.6204L16.2806 12.8554C16.5726 12.5614 16.5716 12.0864 16.2776 11.7944C15.9836 11.5024 15.5096 11.5024 15.2166 11.7964L12.7496 14.2734V7.9184C12.7496 7.5034 12.4136 7.1684 11.9996 7.1684C11.5856 7.1684 11.2496 7.5034 11.2496 7.9184V14.2734L8.78357 11.7964C8.63657 11.6494 8.44457 11.5764 8.25157 11.5764C8.06057 11.5764 7.86857 11.6494 7.72257 11.7944C7.42957 12.0864 7.42857 12.5614 7.72057 12.8554Z" fill="#040415"/>
</svg>
