<svg width="24" height="24" viewBox="0 0 24 24" fill="none" xmlns="http://www.w3.org/2000/svg">
<path fill-rule="evenodd" clip-rule="evenodd" d="M5.91064 20.5885C5.91064 19.7485 6.59064 19.0685 7.43064 19.0685C8.26064 19.0685 8.94064 19.7485 8.94064 20.5885C8.94064 21.4185 8.26064 22.0985 7.43064 22.0985C6.59064 22.0985 5.91064 21.4185 5.91064 20.5885ZM17.1606 20.5885C17.1606 19.7485 17.8406 19.0685 18.6806 19.0685C19.5106 19.0685 20.1906 19.7485 20.1906 20.5885C20.1906 21.4185 19.5106 22.0985 18.6806 22.0985C17.8406 22.0985 17.1606 21.4185 17.1606 20.5885Z" fill="#CDCDD0"/>
<path fill-rule="evenodd" clip-rule="evenodd" d="M16.9007 11.548H14.1307C13.7107 11.548 13.3807 11.208 13.3807 10.798C13.3807 10.378 13.7107 10.048 14.1307 10.048H16.9007C17.3207 10.048 17.6507 10.378 17.6507 10.798C17.6507 11.208 17.3207 11.548 16.9007 11.548ZM21.6007 7.01903C21.2007 6.55903 20.8007 6.34903 20.1907 6.34903H6.68574C6.36574 6.34903 6.10574 6.10903 6.07574 5.78803L5.88574 3.54803C5.85574 3.20803 5.60574 2.92903 5.26574 2.86803L2.88074 2.50803C2.47074 2.44803 2.08074 2.71803 2.01074 3.12803C1.94074 3.52803 2.22074 3.91803 2.62074 3.98803L4.13074 4.24803L5.05074 15.149C5.16074 16.468 6.26074 17.488 7.59074 17.488H18.5007C19.7707 17.488 20.8507 16.559 21.0307 15.298L21.9807 8.73803C22.0707 8.13903 22.0007 7.47903 21.6007 7.01903Z" fill="#040415"/>
</svg>
