<svg width="24" height="24" viewBox="0 0 24 24" fill="none" xmlns="http://www.w3.org/2000/svg">
<path fill-rule="evenodd" clip-rule="evenodd" d="M21.3749 3.85931V3.86948L11.9586 13.5151L3.44441 22.2459C3.27591 22.4085 3.06777 22.5 2.84971 22.5C2.63165 22.5 2.4235 22.4085 2.24509 22.2459C1.96756 21.9511 1.92791 21.5141 2.11623 21.1888L2.14597 21.1482C2.16579 21.1167 2.18562 21.0872 2.21535 21.0567L20.1755 2.62948C20.3242 2.46685 20.5423 2.3642 20.7702 2.3642C20.9982 2.3642 21.2163 2.46685 21.3749 2.62948C21.7019 2.97505 21.7019 3.51374 21.3749 3.85931Z" fill="#CDCDD0"/>
<path fill-rule="evenodd" clip-rule="evenodd" d="M7.14117 13.5558L9.82727 10.8014C9.39115 10.1712 9.02441 9.51058 8.74688 8.8296C8.59622 8.40676 9.02285 7.74323 9.33654 7.25536C9.41495 7.13341 9.48631 7.02244 9.53982 6.92894C9.54545 6.91873 9.55109 6.9085 9.55675 6.89825C9.8103 6.4387 10.0919 5.92839 9.95612 5.27221C9.83718 4.68271 8.27111 2.66008 7.71605 2.10106C7.35923 1.73516 6.98258 1.53188 6.59602 1.50139C5.15881 1.44041 3.54319 3.40205 3.26566 3.86959C2.55201 4.86566 2.56192 6.19713 3.27557 7.80304C3.95948 9.52074 5.39669 11.5739 7.14117 13.5558ZM19.63 20.518C19.9968 20.3046 21.999 18.5869 21.9494 17.0725C21.9097 16.6964 21.7214 16.3102 21.3646 15.9341C20.8194 15.3649 18.847 13.7285 18.2622 13.6065C17.6321 13.4674 17.1348 13.7559 16.6867 14.0159C16.6766 14.0218 16.6666 14.0276 16.6565 14.0334C16.557 14.092 16.4391 14.1715 16.3101 14.2583C15.8349 14.5782 15.2105 14.9987 14.8129 14.8476C13.901 14.4705 13.009 13.9318 12.1863 13.2823L9.52 16.0154C11.651 18.0177 13.9407 19.7049 15.7942 20.4977C16.5772 20.8738 17.3008 21.0567 17.945 21.0567C18.5794 21.0567 19.1444 20.8738 19.63 20.518Z" fill="#040415"/>
</svg>
