<svg width="24" height="24" viewBox="0 0 24 24" fill="none" xmlns="http://www.w3.org/2000/svg">
<path fill-rule="evenodd" clip-rule="evenodd" d="M19.3374 5.91772L21.7409 3.50518C21.9085 3.33698 22.0003 3.11407 22.0003 2.87798C22.0003 2.64189 21.9085 2.41898 21.7409 2.25078C21.4068 1.91641 20.8263 1.91641 20.4922 2.25078L18.0887 4.66434L15.6841 2.25078C15.35 1.91641 14.7696 1.91641 14.4354 2.25078C14.2689 2.41898 14.177 2.64189 14.177 2.87798C14.177 3.11407 14.2689 3.33698 14.4354 3.50518L16.839 5.91772L14.4354 8.33027C14.2689 8.49847 14.177 8.72138 14.177 8.95747C14.177 9.19356 14.2689 9.41647 14.4354 9.58467C14.7696 9.91904 15.35 9.91904 15.6841 9.58467L18.0887 7.17111L20.4922 9.58467C20.6598 9.75186 20.8808 9.84406 21.117 9.84406C21.3533 9.84406 21.5743 9.75186 21.7409 9.58467C21.9085 9.41647 22.0003 9.19356 22.0003 8.95747C22.0003 8.72138 21.9085 8.49847 21.7409 8.33027L19.3374 5.91772Z" fill="#CDCDD0"/>
<path fill-rule="evenodd" clip-rule="evenodd" d="M17.8166 14.5709C17.1595 14.4311 16.6396 14.735 16.1793 15.0005C15.7079 15.2741 14.8115 15.9985 14.2976 15.8121C11.667 14.734 9.1928 12.439 8.12176 9.80861C7.93299 9.28477 8.65678 8.38601 8.92933 7.91181C9.19381 7.4518 9.49261 6.92795 9.35634 6.26934C9.23318 5.67659 7.64025 3.65718 7.07697 3.10496C6.70549 2.7402 6.32492 2.53957 5.93426 2.50614C4.4665 2.44433 2.82512 4.39686 2.53742 4.86396C1.81667 5.85999 1.82171 7.18532 2.54954 8.79131C4.306 13.1088 10.9493 19.6229 15.298 21.4387C16.1005 21.8126 16.8344 22 17.4936 22C18.1387 22 18.713 21.8207 19.2067 21.465C19.5792 21.2512 21.6193 19.5358 21.5658 18.0332C21.5335 17.6501 21.3336 17.2671 20.9712 16.8963C20.421 16.3299 18.4072 14.6955 17.8166 14.5709Z" fill="#040415"/>
</svg>
