<svg width="24" height="24" viewBox="0 0 24 24" fill="none" xmlns="http://www.w3.org/2000/svg">
<path fill-rule="evenodd" clip-rule="evenodd" d="M7.16565 15.1426C7.62736 14.8444 7.75154 14.3674 7.86363 13.9471C7.97743 13.5158 8.07528 12.577 8.47998 12.3875C10.6273 11.4928 13.3892 11.3935 15.5357 12.3014C15.9483 12.4957 16.0514 13.4358 16.1696 13.8692C16.2836 14.289 16.4143 14.7652 16.8759 15.0693C17.2911 15.3421 19.3841 15.593 20.0303 15.5878C20.4568 15.5847 20.7933 15.4811 21.038 15.274C21.9237 14.4612 21.739 12.3796 21.6342 11.9422C21.4729 10.9474 20.7014 10.1805 19.3474 9.66931C15.8267 8.17982 8.20498 8.24044 4.63672 9.70114C3.95571 9.94817 3.42259 10.2637 3.04145 10.6449C2.66848 11.0178 2.44045 11.454 2.36144 11.9458C2.27014 12.2853 2.0861 14.4605 2.98911 15.3016C3.23006 15.5052 3.5685 15.6113 3.99268 15.6176C4.6395 15.6282 6.75245 15.4123 7.16565 15.1426Z" fill="#040415"/>
</svg>
