<svg width="24" height="24" viewBox="0 0 24 24" fill="none" xmlns="http://www.w3.org/2000/svg">
<path fill-rule="evenodd" clip-rule="evenodd" d="M16.6756 2H7.33333C3.92889 2 2 3.92889 2 7.33333V16.6667C2 20.0711 3.92889 22 7.33333 22H16.6756C20.08 22 22 20.0711 22 16.6667V7.33333C22 3.92889 20.08 2 16.6756 2Z" fill="#CDCDD0"/>
<path fill-rule="evenodd" clip-rule="evenodd" d="M12.0353 6.08899C11.582 6.08899 11.2087 6.46232 11.2087 6.92454V17.0757C11.2087 17.529 11.582 17.9023 12.0353 17.9023C12.4975 17.9023 12.8709 17.529 12.8709 17.0757V6.92454C12.8709 6.46232 12.4975 6.08899 12.0353 6.08899ZM7.36866 9.36899C6.91533 9.36899 6.54199 9.74232 6.54199 10.2045V17.0757C6.54199 17.529 6.91533 17.9023 7.36866 17.9023C7.83088 17.9023 8.20421 17.529 8.20421 17.0757V10.2045C8.20421 9.74232 7.83088 9.36899 7.36866 9.36899ZM15.8043 13.8312C15.8043 13.369 16.1776 12.9957 16.6399 12.9957C17.0932 12.9957 17.4665 13.369 17.4665 13.8312V17.0757C17.4665 17.529 17.0932 17.9023 16.631 17.9023C16.1776 17.9023 15.8043 17.529 15.8043 17.0757V13.8312Z" fill="#040415"/>
</svg>
