<svg width="24" height="24" viewBox="0 0 24 24" fill="none" xmlns="http://www.w3.org/2000/svg">
<path fill-rule="evenodd" clip-rule="evenodd" d="M15.9513 10.4164L16.7603 9.40645C17.1307 8.92988 17.2624 8.3789 17.1389 7.81788C17.0319 7.30787 16.7192 6.82293 16.25 6.45505L15.106 5.54372C14.1101 4.74943 12.8755 4.83304 12.1677 5.74438L11.3874 6.71341C11.3051 6.81708 11.3191 6.96591 11.4212 7.04951C11.6753 7.2554 12.1703 7.65665 12.7445 8.12219C13.749 8.93654 14.9962 9.94764 15.622 10.4541C15.7233 10.536 15.8698 10.5193 15.9513 10.4164ZM13.7874 17.4081H18.2163C18.6484 17.4081 18.9998 17.7651 18.9998 18.204C18.9998 18.6438 18.6484 19 18.2163 19H13.7874C13.3553 19 13.0039 18.6438 13.0039 18.204C13.0039 17.7651 13.3553 17.4081 13.7874 17.4081Z" fill="#CDCDD0"/>
<path fill-rule="evenodd" clip-rule="evenodd" d="M10.7016 8.05221L14.9107 11.4656C15.0123 11.5472 15.0296 11.697 14.9503 11.8013L9.96027 18.3267C9.64659 18.7298 9.18432 18.9579 8.68902 18.9663L5.96492 19C5.81963 19.0017 5.69251 18.9007 5.65949 18.7559L5.04037 16.0545C4.93306 15.558 5.04037 15.0447 5.35406 14.6491L10.3689 8.09261C10.4498 7.98741 10.5992 7.9689 10.7016 8.05221Z" fill="#040415"/>
</svg>
