<svg width="24" height="24" viewBox="0 0 24 24" fill="none" xmlns="http://www.w3.org/2000/svg">
<path fill-rule="evenodd" clip-rule="evenodd" d="M20.4933 4.89832C21.3244 4.89832 22 5.56202 22 6.37855C22 7.19617 21.3244 7.85988 20.4933 7.85988H13.9178C13.0856 7.85988 12.4101 7.19617 12.4101 6.37855C12.4101 5.56202 13.0856 4.89832 13.9178 4.89832H20.4933ZM3.50777 15.9579H10.0833C10.9155 15.9579 11.5911 16.6216 11.5911 17.4393C11.5911 18.2558 10.9155 18.9206 10.0833 18.9206H3.50777C2.67555 18.9206 2 18.2558 2 17.4393C2 16.6216 2.67555 15.9579 3.50777 15.9579Z" fill="#CDCDD0"/>
<path fill-rule="evenodd" clip-rule="evenodd" d="M5.43887 9.75821C7.33886 9.75821 8.87774 8.24523 8.87774 6.37856C8.87774 4.51298 7.33886 3 5.43887 3C3.53999 3 2 4.51298 2 6.37856C2 8.24523 3.53999 9.75821 5.43887 9.75821ZM18.5611 20.7778C20.4611 20.7778 22 19.2648 22 17.3992C22 15.5325 20.4611 14.0196 18.5611 14.0196C16.6623 14.0196 15.1223 15.5325 15.1223 17.3992C15.1223 19.2648 16.6623 20.7778 18.5611 20.7778Z" fill="#040415"/>
</svg>
