<svg width="24" height="24" viewBox="0 0 24 24" fill="none" xmlns="http://www.w3.org/2000/svg">
<rect x="1" y="3" width="22" height="18" rx="4" fill="#CDCDD0"/>
<path fill-rule="evenodd" clip-rule="evenodd" d="M5 6C4.44772 6 4 6.44772 4 7V11C4 11.5523 4.44772 12 5 12C5.55228 12 6 11.5523 6 11V8H9C9.55228 8 10 7.55228 10 7C10 6.44772 9.55228 6 9 6H5ZM15 16C14.4477 16 14 16.4477 14 17C14 17.5523 14.4477 18 15 18H19C19.5523 18 20 17.5523 20 17V13C20 12.4477 19.5523 12 19 12C18.4477 12 18 12.4477 18 13V16H15Z" fill="#040415"/>
</svg>
