<svg width="24" height="24" viewBox="0 0 24 24" fill="none" xmlns="http://www.w3.org/2000/svg">
<path fill-rule="evenodd" clip-rule="evenodd" d="M13 22V14H19V20C19 21.1046 18.1046 22 17 22H13ZM11 8.00002V12H5C4.44772 12 4 11.5523 4 11V9.00002C4 8.44774 4.44772 8.00002 5 8.00002H5.535C4.50468 6.21983 4.99238 3.94843 6.66266 2.7481C8.33295 1.54777 10.6413 1.80982 12 3.35402C13.3587 1.80982 15.6671 1.54777 17.3373 2.7481C19.0076 3.94843 19.4953 6.21983 18.465 8.00002H19C19.5523 8.00002 20 8.44774 20 9.00002V11C20 11.5523 19.5523 12 19 12H13V8.00002H11ZM11 22H7C5.89543 22 5 21.1046 5 20V14H11V22ZM11 8.00002V6.00002C11 4.89545 10.1046 4.00002 9 4.00002C7.89543 4.00002 7 4.89545 7 6.00002C7 7.10459 7.89543 8.00002 9 8.00002H11ZM13 8.00002H15C16.1046 8.00002 17 7.10459 17 6.00002C17 4.89545 16.1046 4.00002 15 4.00002C13.8954 4.00002 13 4.89545 13 6.00002V8.00002Z" fill="#040415"/>
</svg>
