<svg width="24" height="24" viewBox="0 0 24 24" fill="none" xmlns="http://www.w3.org/2000/svg">
<path fill-rule="evenodd" clip-rule="evenodd" d="M11.949 12.467C14.2851 12.467 16.1583 10.5831 16.1583 8.23351C16.1583 5.88306 14.2851 4 11.949 4C9.61294 4 7.73975 5.88306 7.73975 8.23351C7.73975 10.5831 9.61294 12.467 11.949 12.467ZM21.088 9.21926C21.6924 6.84179 19.9204 4.70658 17.6639 4.70658C17.4186 4.70658 17.184 4.73359 16.9548 4.77952C16.9243 4.78673 16.8903 4.80204 16.8724 4.82905C16.8518 4.86327 16.867 4.9092 16.8894 4.93892C17.5672 5.89531 17.9567 7.05973 17.9567 8.3097C17.9567 9.50744 17.5995 10.6241 16.9727 11.5508C16.9082 11.6463 16.9655 11.775 17.0793 11.7949C17.2368 11.8228 17.398 11.8372 17.5628 11.8417C19.2058 11.8849 20.6806 10.8214 21.088 9.21926ZM6.33567 4.70685C6.58101 4.70685 6.8165 4.73296 7.04483 4.77979C7.07617 4.787 7.1093 4.8014 7.12721 4.82932C7.1487 4.86354 7.13258 4.90947 7.11109 4.93919C6.43327 5.89468 6.04288 7.0591 6.04288 8.30997C6.04288 9.50771 6.40014 10.6235 7.02692 11.5511C7.09139 11.6465 7.03409 11.7753 6.92037 11.7951C6.76368 11.8221 6.60161 11.8375 6.43685 11.842C4.79379 11.8852 3.31906 10.8216 2.91255 9.21953C2.30726 6.84207 4.07926 4.70685 6.33567 4.70685Z" fill="#CDCDD0"/>
<path fill-rule="evenodd" clip-rule="evenodd" d="M22.8093 14.817C22.5084 14.1722 21.7823 13.73 20.6782 13.513C20.1571 13.3851 18.7468 13.205 17.4351 13.2293C17.4154 13.232 17.4046 13.2455 17.4028 13.2545C17.4002 13.2671 17.4055 13.2887 17.4315 13.3022C18.0377 13.6039 20.3809 14.916 20.0864 17.6834C20.0738 17.8032 20.1696 17.9068 20.2887 17.8888C20.8654 17.8059 22.349 17.4853 22.8093 16.4866C23.0636 15.9589 23.0636 15.3456 22.8093 14.817ZM11.949 14.5399C8.49904 14.5399 5.58809 15.1037 5.58809 17.2794C5.58809 19.4561 8.51785 20 11.949 20C15.399 20 18.31 19.4363 18.31 17.2605C18.31 15.0839 15.3802 14.5399 11.949 14.5399ZM1.19139 14.8167C1.49225 14.1719 2.21752 13.7297 3.32156 13.5127C3.84358 13.3848 5.25294 13.2047 6.5656 13.2299C6.5853 13.2317 6.59515 13.2452 6.59694 13.2542C6.59962 13.2677 6.59425 13.2884 6.56918 13.3029C5.9621 13.6045 3.61883 14.9166 3.91342 17.6832C3.92595 17.8038 3.83104 17.9065 3.71195 17.8885C3.13531 17.8065 1.65163 17.485 1.19139 16.4872C0.936203 15.9586 0.936203 15.3453 1.19139 14.8167Z" fill="#040415"/>
</svg>
