<svg width="24" height="24" viewBox="0 0 24 24" fill="none" xmlns="http://www.w3.org/2000/svg">
<path d="M12.6708 3.21744C12.2485 3.0063 11.7515 3.0063 11.3292 3.21744L5.82918 5.96744C5.321 6.22153 5 6.74092 5 7.30908V18.0001C5 19.6569 6.34315 21.0001 8 21.0001H16C17.6569 21.0001 19 19.6569 19 18.0001V7.30908C19 6.74092 18.679 6.22153 18.1708 5.96744L12.6708 3.21744Z" fill="#CDCDD0"/>
<path fill-rule="evenodd" clip-rule="evenodd" d="M14 21H10V17C10 15.8954 10.8954 15 12 15C13.1046 15 14 15.8954 14 17V21Z" fill="#040415"/>
<path fill-rule="evenodd" clip-rule="evenodd" d="M3.10555 8.44724C3.35254 8.94122 3.95321 9.14144 4.44719 8.89445L12 5.11806L19.5528 8.89445C20.0467 9.14144 20.6474 8.94122 20.8944 8.44724C21.1414 7.95326 20.9412 7.35259 20.4472 7.1056L12.4472 3.1056C12.1657 2.96483 11.8343 2.96483 11.5528 3.1056L3.55276 7.1056C3.05878 7.35259 2.85856 7.95326 3.10555 8.44724Z" fill="#040415"/>
</svg>
