<svg width="24" height="24" viewBox="0 0 24 24" fill="none" xmlns="http://www.w3.org/2000/svg">
<path fill-rule="evenodd" clip-rule="evenodd" d="M16.3387 2H7.67134C4.27455 2 2 4.37607 2 7.91411V16.086C2 17.3181 2.28056 18.4119 2.79158 19.3042C3.12224 18.9022 3.49299 18.4621 3.85371 18.0199C4.46493 17.2891 5.05611 16.5662 5.42685 16.096C5.97796 15.4143 7.43086 13.6197 9.44489 14.4618C9.85571 14.6323 10.2164 14.8729 10.5471 15.0834C11.3587 15.6248 11.6994 15.7852 12.2705 15.4734C12.9018 15.1336 13.3126 14.4618 13.7435 13.759C13.9739 13.3881 14.2044 13.0282 14.4549 12.6973C15.5471 11.2737 17.2305 10.8927 18.6333 11.7349C19.3347 12.1559 19.9359 12.6873 20.497 13.2277C20.6172 13.348 20.7375 13.4593 20.8477 13.5696C20.998 13.7189 21.499 14.2202 22 14.7025V7.91411C22 4.37607 19.7255 2 16.3387 2Z" fill="#CDCDD0"/>
<path fill-rule="evenodd" clip-rule="evenodd" d="M8.87327 11.3783C10.2811 11.3783 11.4544 10.2053 11.4544 8.79668C11.4544 7.38909 10.2811 6.21509 8.87327 6.21509C7.46645 6.21509 6.29311 7.38909 6.29311 8.79668C6.29311 10.2053 7.46645 11.3783 8.87327 11.3783ZM21.9999 16.0859V14.7024C21.499 14.2212 20.998 13.7199 20.8476 13.5695L20.8476 13.5695C20.7937 13.5155 20.7374 13.4614 20.6799 13.406C20.6198 13.3482 20.5583 13.2891 20.4969 13.2276C19.9358 12.6872 19.3346 12.1559 18.6332 11.7348C17.2304 10.8926 15.547 11.2736 14.4548 12.6972C14.2043 13.0281 13.9739 13.388 13.7434 13.76L13.7386 13.7678C13.3095 14.4667 12.8994 15.1347 12.2705 15.4743C11.6993 15.7851 11.3586 15.6247 10.547 15.0833C10.5153 15.0632 10.4833 15.0427 10.4511 15.022C10.1467 14.8273 9.81624 14.6159 9.44481 14.4618C7.43078 13.6196 5.97788 15.4142 5.42677 16.0959C5.05603 16.5661 4.46485 17.289 3.85363 18.0209C3.65026 18.2696 3.44371 18.5179 3.24295 18.7593C3.08761 18.9461 2.93575 19.1288 2.7915 19.3041C3.042 19.7753 3.36265 20.1864 3.74341 20.5363C4.71535 21.4797 6.06806 22 7.67126 22H16.3286C19.4949 22 21.6893 19.9357 21.9699 16.7767C21.9899 16.5471 21.9999 16.3155 21.9999 16.0859Z" fill="#040415"/>
</svg>
