<svg width="24" height="24" viewBox="0 0 24 24" fill="none" xmlns="http://www.w3.org/2000/svg">
<ellipse cx="12" cy="21" rx="5" ry="1" fill="#CDCDD0"/>
<path fill-rule="evenodd" clip-rule="evenodd" d="M15.5664 2.99489C13.402 1.68946 10.7165 1.66727 8.53162 2.93677C6.34676 4.20627 4.99855 6.57225 5 9.13442C5.06583 11.016 5.69859 12.8314 6.81233 14.334C8.14333 16.134 9.78243 17.6746 11.6508 18.8814C11.7693 18.9534 11.9036 18.9941 12.0415 19C12.1847 18.9777 12.3228 18.9289 12.4488 18.856C13.6726 18.0528 14.7998 17.1064 15.8075 16.0361C17.5533 14.19 18.95 11.8019 18.9998 9.26144C19.012 6.70418 17.7095 4.32691 15.5664 2.99489ZM11.9916 11.6918C11.0292 11.6918 10.1617 11.1008 9.79416 10.1948C9.42664 9.28872 9.63159 8.24635 10.3133 7.55435C10.995 6.86235 12.0191 6.65723 12.9073 7.03477C13.7955 7.41231 14.3726 8.29804 14.3692 9.27838C14.3715 9.92064 14.1214 10.5371 13.6748 10.9905C13.2282 11.4438 12.6221 11.6964 11.9916 11.6918Z" fill="#040415"/>
</svg>
