<svg width="24" height="24" viewBox="0 0 24 24" fill="none" xmlns="http://www.w3.org/2000/svg">
<path fill-rule="evenodd" clip-rule="evenodd" d="M17.5227 7.39595V8.86667C17.1671 8.7673 16.7911 8.71761 16.405 8.71761H15.7445V7.39595C15.7445 5.37868 14.0679 3.73903 12.0051 3.73903C9.94233 3.73903 8.2657 5.36874 8.25554 7.37608V8.71761H7.60521C7.20891 8.71761 6.83294 8.7673 6.47729 8.87661V7.39595C6.48746 4.41476 8.95667 2 11.9848 2C15.0535 2 17.5227 4.41476 17.5227 7.39595Z" fill="#CDCDD0"/>
<path fill-rule="evenodd" clip-rule="evenodd" d="M12.8891 16.455C12.8891 16.9419 12.4928 17.3294 11.9949 17.3294C11.5072 17.3294 11.1109 16.9419 11.1109 16.455V14.2489C11.1109 13.7719 11.5072 13.3843 11.9949 13.3843C12.4928 13.3843 12.8891 13.7719 12.8891 14.2489V16.455ZM16.2312 8.71381H7.7688C5.41136 8.71381 3.5 10.583 3.5 12.8885V17.8253C3.5 20.1308 5.41136 22 7.7688 22H16.2312C18.5886 22 20.5 20.1308 20.5 17.8253V12.8885C20.5 10.583 18.5886 8.71381 16.2312 8.71381Z" fill="#040415"/>
</svg>
