<svg width="24" height="24" viewBox="0 0 24 24" fill="none" xmlns="http://www.w3.org/2000/svg">
<path fill-rule="evenodd" clip-rule="evenodd" d="M18.1317 9.01693C18.3855 9.01908 18.6113 9.021 18.8089 9.021C19.0305 9.021 19.3552 9.01841 19.6774 9.01584C19.8029 9.01484 19.928 9.01384 20.0465 9.013C20.298 9.012 20.5 9.217 20.5 9.471V17.502C20.5 19.987 18.5059 22 16.0455 22H8.1703C5.59109 22 3.5 19.889 3.5 17.284V6.509C3.5 4.026 5.49604 2 7.96337 2H13.2525C13.503 2 13.7059 2.206 13.7059 2.459V5.675C13.7059 7.508 15.199 9.011 17.0149 9.011C17.4334 9.011 17.8057 9.01416 18.1317 9.01693ZM15.2629 2.9013C15.2629 2.4703 15.7859 2.2563 16.0839 2.5673C16.7763 3.28662 17.7993 4.35078 18.7227 5.31134C19.2421 5.85174 19.7301 6.35934 20.1099 6.7543C20.4019 7.0583 20.1879 7.5613 19.7679 7.5623C18.9449 7.5643 17.9769 7.5623 17.2799 7.5543C16.1739 7.5543 15.2629 6.6443 15.2629 5.5383V2.9013Z" fill="#CDCDD0"/>
<path fill-rule="evenodd" clip-rule="evenodd" d="M14.3672 14.5693H9.4242C9.0132 14.5693 8.6792 14.2363 8.6792 13.8253C8.6792 13.4143 9.0132 13.0803 9.4242 13.0803H14.3672C14.7782 13.0803 15.1122 13.4143 15.1122 13.8253C15.1122 14.2363 14.7782 14.5693 14.3672 14.5693Z" fill="#040415"/>
</svg>
