<svg width="24" height="24" viewBox="0 0 24 24" fill="none" xmlns="http://www.w3.org/2000/svg">
<path fill-rule="evenodd" clip-rule="evenodd" d="M18.1317 9.01693C18.3855 9.01908 18.6113 9.021 18.8089 9.021C19.0305 9.021 19.3552 9.01841 19.6774 9.01584C19.8029 9.01484 19.928 9.01384 20.0465 9.013C20.298 9.012 20.5 9.217 20.5 9.471V17.502C20.5 19.987 18.5059 22 16.0455 22H8.1703C5.59109 22 3.5 19.889 3.5 17.284V6.509C3.5 4.026 5.49604 2 7.96337 2H13.2525C13.503 2 13.7059 2.206 13.7059 2.459V5.675C13.7059 7.508 15.199 9.011 17.0149 9.011C17.4334 9.011 17.8057 9.01416 18.1317 9.01693ZM15.263 2.9013C15.263 2.4703 15.786 2.2563 16.084 2.5673C16.7764 3.28662 17.7994 4.35078 18.7227 5.31134C19.2422 5.85174 19.7302 6.35934 20.11 6.7543C20.402 7.0583 20.188 7.5613 19.767 7.5623C18.945 7.5643 17.977 7.5623 17.28 7.5543C16.174 7.5543 15.263 6.6443 15.263 5.5383V2.9013Z" fill="#CDCDD0"/>
<path fill-rule="evenodd" clip-rule="evenodd" d="M12.9349 12.9853L14.1559 11.7633C14.4469 11.4733 14.4469 11.0023 14.1559 10.7113C13.8649 10.4203 13.3939 10.4203 13.1029 10.7113L11.8819 11.9313L10.6609 10.7113C10.3699 10.4203 9.89792 10.4203 9.60692 10.7113C9.31592 11.0023 9.31592 11.4733 9.60692 11.7633L10.8289 12.9853L9.60692 14.2063C9.31592 14.4973 9.31592 14.9683 9.60692 15.2583C9.75292 15.4043 9.94292 15.4773 10.1339 15.4773C10.3249 15.4773 10.5149 15.4043 10.6609 15.2583L11.8819 14.0383L13.1029 15.2583C13.2479 15.4043 13.4389 15.4773 13.6299 15.4773C13.8199 15.4773 14.0109 15.4043 14.1559 15.2583C14.4469 14.9683 14.4469 14.4973 14.1559 14.2063L12.9349 12.9853Z" fill="#040415"/>
</svg>
