<svg width="24" height="24" viewBox="0 0 24 24" fill="none" xmlns="http://www.w3.org/2000/svg">
<path fill-rule="evenodd" clip-rule="evenodd" d="M18.1315 9.01693C18.3854 9.01908 18.6111 9.021 18.8088 9.021C19.0313 9.021 19.3565 9.01841 19.679 9.01583C19.8043 9.01484 19.9292 9.01384 20.0475 9.013C20.299 9.012 20.5 9.217 20.5 9.471V17.502C20.5 19.987 18.5058 22 16.0463 22H8.16958C5.59022 22 3.5 19.889 3.5 17.284V6.509C3.5 4.026 5.49517 2 7.96363 2H13.253C13.5036 2 13.7055 2.206 13.7055 2.459V5.675C13.7055 7.508 15.1987 9.011 17.0146 9.011C17.4333 9.011 17.8056 9.01416 18.1315 9.01693ZM15.263 2.9013C15.263 2.4703 15.785 2.2563 16.084 2.5673C16.7764 3.28662 17.7994 4.35078 18.7227 5.31134C19.2422 5.85174 19.7302 6.35934 20.11 6.7543C20.402 7.0583 20.188 7.5613 19.767 7.5623C18.945 7.5643 17.977 7.5623 17.28 7.5543C16.174 7.5543 15.263 6.6443 15.263 5.5383V2.9013Z" fill="#CDCDD0"/>
<path fill-rule="evenodd" clip-rule="evenodd" d="M8.97398 11.3876H12.359C12.77 11.3876 13.104 11.0546 13.104 10.6436C13.104 10.2326 12.77 9.89862 12.359 9.89862H8.97398C8.56298 9.89862 8.22998 10.2326 8.22998 10.6436C8.22998 11.0546 8.56298 11.3876 8.97398 11.3876ZM8.97408 16.3818H14.4181C14.8291 16.3818 15.1631 16.0488 15.1631 15.6378C15.1631 15.2268 14.8291 14.8928 14.4181 14.8928H8.97408C8.56308 14.8928 8.23008 15.2268 8.23008 15.6378C8.23008 16.0488 8.56308 16.3818 8.97408 16.3818Z" fill="#040415"/>
</svg>
