<svg width="24" height="24" viewBox="0 0 24 24" fill="none" xmlns="http://www.w3.org/2000/svg">
<path fill-rule="evenodd" clip-rule="evenodd" d="M18.1315 9.01693C18.3854 9.01908 18.6111 9.021 18.8088 9.021C19.031 9.021 19.3574 9.0184 19.6804 9.01582C19.805 9.01482 19.9291 9.01383 20.0465 9.013C20.298 9.012 20.5 9.217 20.5 9.471V17.502C20.5 19.987 18.5058 22 16.0453 22H8.16958C5.59022 22 3.5 19.889 3.5 17.284V6.509C3.5 4.026 5.49517 2 7.96363 2H13.253C13.5026 2 13.7055 2.206 13.7055 2.459V5.675C13.7055 7.508 15.1987 9.011 17.0146 9.011C17.4333 9.011 17.8056 9.01416 18.1315 9.01693ZM15.2631 2.9013C15.2631 2.4703 15.7851 2.2563 16.0841 2.5673C16.7765 3.28656 17.7993 4.35061 18.7226 5.31111C19.2422 5.85159 19.7302 6.35928 20.1101 6.7543C20.4021 7.0583 20.1881 7.5613 19.7671 7.5623C18.9451 7.5643 17.9771 7.5623 17.2791 7.5543C16.1741 7.5543 15.2631 6.6443 15.2631 5.5383V2.9013Z" fill="#CDCDD0"/>
<path fill-rule="evenodd" clip-rule="evenodd" d="M14.3672 12.2363H12.6392V10.5093C12.6392 10.0983 12.3062 9.76428 11.8952 9.76428C11.4842 9.76428 11.1502 10.0983 11.1502 10.5093V12.2363H9.4232C9.0122 12.2363 8.6792 12.5703 8.6792 12.9813C8.6792 13.3923 9.0122 13.7263 9.4232 13.7263H11.1502V15.4523C11.1502 15.8633 11.4842 16.1973 11.8952 16.1973C12.3062 16.1973 12.6392 15.8633 12.6392 15.4523V13.7263H14.3672C14.7782 13.7263 15.1122 13.3923 15.1122 12.9813C15.1122 12.5703 14.7782 12.2363 14.3672 12.2363Z" fill="#040415"/>
</svg>
