<svg width="24" height="24" viewBox="0 0 24 24" fill="none" xmlns="http://www.w3.org/2000/svg">
<path fill-rule="evenodd" clip-rule="evenodd" d="M18.1317 9.01693C18.3855 9.01908 18.6113 9.021 18.8089 9.021C19.0305 9.021 19.3552 9.01841 19.6774 9.01584C19.8029 9.01484 19.928 9.01384 20.0465 9.013C20.298 9.012 20.5 9.217 20.5 9.471V17.502C20.5 19.987 18.5059 22 16.0455 22H8.1703C5.59109 22 3.5 19.889 3.5 17.284V6.509C3.5 4.026 5.49604 2 7.96436 2H13.2525C13.503 2 13.7059 2.206 13.7059 2.459V5.675C13.7059 7.508 15.199 9.011 17.0149 9.011C17.4334 9.011 17.8057 9.01416 18.1317 9.01693ZM15.2633 2.9013C15.2633 2.4703 15.7853 2.2563 16.0843 2.5673C16.7767 3.28656 17.7995 4.35061 18.7228 5.31111C19.2424 5.85159 19.7304 6.35928 20.1103 6.7543C20.4023 7.0583 20.1883 7.5613 19.7673 7.5623C18.9453 7.5643 17.9773 7.5623 17.2793 7.5543C16.1733 7.5543 15.2633 6.6443 15.2633 5.5383V2.9013Z" fill="#CDCDD0"/>
<path fill-rule="evenodd" clip-rule="evenodd" d="M15.1052 12.7089C14.8132 12.4199 14.3432 12.4179 14.0512 12.7109L12.4622 14.3079V9.4809C12.4622 9.0699 12.1282 8.7359 11.7172 8.7359C11.3062 8.7359 10.9722 9.0699 10.9722 9.4809V14.3079L9.38224 12.7109C9.09124 12.4179 8.62024 12.4199 8.32924 12.7089C8.03724 12.9989 8.03724 13.4699 8.32624 13.7619L11.1892 16.6379H11.1902C11.2582 16.7059 11.3392 16.7609 11.4302 16.7989C11.5202 16.8359 11.6182 16.8559 11.7172 16.8559C11.8172 16.8559 11.9152 16.8359 12.0052 16.7979C12.0942 16.7609 12.1752 16.7059 12.2432 16.6389L12.2452 16.6379L15.1072 13.7619C15.3972 13.4699 15.3972 12.9989 15.1052 12.7089Z" fill="#040415"/>
</svg>
