<svg width="24" height="24" viewBox="0 0 24 24" fill="none" xmlns="http://www.w3.org/2000/svg">
<path fill-rule="evenodd" clip-rule="evenodd" d="M18.1315 9.01693C18.3854 9.01908 18.6111 9.021 18.8088 9.021C19.031 9.021 19.3574 9.0184 19.6804 9.01582C19.805 9.01482 19.9291 9.01383 20.0465 9.013C20.298 9.012 20.5 9.217 20.5 9.471V17.502C20.5 19.987 18.5058 22 16.0453 22H8.16958C5.59022 22 3.5 19.889 3.5 17.284V6.509C3.5 4.026 5.49517 2 7.96363 2H13.253C13.5026 2 13.7055 2.206 13.7055 2.459V5.675C13.7055 7.508 15.1987 9.011 17.0146 9.011C17.4333 9.011 17.8056 9.01416 18.1315 9.01693ZM15.2632 2.9013C15.2632 2.4703 15.7852 2.2563 16.0842 2.5673C16.777 3.28703 17.8008 4.35199 18.7245 5.31297C19.2434 5.85276 19.7307 6.35974 20.1102 6.7543C20.4022 7.0583 20.1882 7.5613 19.7672 7.5623C18.9452 7.5643 17.9772 7.5623 17.2792 7.5543C16.1742 7.5543 15.2632 6.6443 15.2632 5.5383V2.9013Z" fill="#CDCDD0"/>
<path fill-rule="evenodd" clip-rule="evenodd" d="M15.1052 12.8837C14.8142 13.1727 14.3432 13.1747 14.0512 12.8817L12.4622 11.2847V16.1117C12.4622 16.5227 12.1282 16.8567 11.7172 16.8567C11.3062 16.8567 10.9732 16.5227 10.9732 16.1117V11.2847L9.38223 12.8817C9.09223 13.1747 8.62023 13.1727 8.32923 12.8837C8.03823 12.5947 8.03723 12.1227 8.32723 11.8307L11.1892 8.95569C11.1902 8.95469 11.1902 8.95469 11.1902 8.95469C11.2582 8.88669 11.3402 8.83169 11.4302 8.79469C11.5202 8.75669 11.6182 8.73669 11.7172 8.73669C11.8172 8.73669 11.9152 8.75669 12.0052 8.79469C12.0942 8.83169 12.1752 8.88669 12.2432 8.95369C12.2442 8.95469 12.2452 8.95469 12.2452 8.95569L15.1072 11.8307C15.3972 12.1227 15.3972 12.5947 15.1052 12.8837Z" fill="#040415"/>
</svg>
