<svg width="24" height="24" viewBox="0 0 24 24" fill="none" xmlns="http://www.w3.org/2000/svg">
<path fill-rule="evenodd" clip-rule="evenodd" d="M16.3345 1.99982H7.66549C4.27649 1.99982 2.00049 4.37782 2.00049 7.91682V16.0838C2.00049 19.6218 4.27649 21.9998 7.66549 21.9998H16.3335C19.7225 21.9998 22.0005 19.6218 22.0005 16.0838V7.91682C22.0005 4.37782 19.7235 1.99982 16.3345 1.99982Z" fill="#CDCDD0"/>
<path fill-rule="evenodd" clip-rule="evenodd" d="M11.3141 11.2485H17.0141C17.4241 11.2485 17.7641 11.5885 17.7641 11.9985V13.8485C17.7641 14.2685 17.4241 14.5985 17.0141 14.5985C16.5941 14.5985 16.2641 14.2685 16.2641 13.8485V12.7485H14.9341V13.8485C14.9341 14.2685 14.5941 14.5985 14.1841 14.5985C13.7641 14.5985 13.4341 14.2685 13.4341 13.8485V12.7485H11.3141C10.9941 13.8185 10.0141 14.5985 8.84413 14.5985C7.40413 14.5985 6.23413 13.4385 6.23413 11.9985C6.23413 10.5685 7.40413 9.3985 8.84413 9.3985C10.0141 9.3985 10.9941 10.1785 11.3141 11.2485ZM7.73413 11.9985C7.73413 12.6085 8.23413 13.0985 8.84413 13.0985C9.44413 13.0985 9.94413 12.6085 9.94413 11.9985C9.94413 11.3885 9.44413 10.8985 8.84413 10.8985C8.23413 10.8985 7.73413 11.3885 7.73413 11.9985Z" fill="#040415"/>
</svg>
