<svg width="24" height="24" viewBox="0 0 24 24" fill="none" xmlns="http://www.w3.org/2000/svg">
<path d="M13 21C13 21.5523 13.4491 22.0057 13.998 21.9445C14.8372 21.8509 15.6609 21.6394 16.4442 21.3149C17.5361 20.8626 18.5282 20.1997 19.364 19.364C20.1997 18.5282 20.8626 17.5361 21.3149 16.4442C21.6394 15.6609 21.8509 14.8372 21.9445 13.998C22.0057 13.4491 21.5523 13 21 13L14 13C13.4477 13 13 13.4477 13 14L13 21Z" fill="#CDCDD0"/>
<path d="M21 11C21.5523 11 22.0057 10.5509 21.9445 10.002C21.8509 9.16274 21.6394 8.33912 21.3149 7.55583C20.8626 6.4639 20.1997 5.47175 19.364 4.63602C18.5282 3.8003 17.5361 3.13736 16.4442 2.68507C15.6609 2.36062 14.8372 2.14912 13.9979 2.05548C13.4491 1.99424 13 2.4477 13 2.99998L13 9.99998C13 10.5523 13.4477 11 14 11H21Z" fill="#040415"/>
<path d="M11 4.00001C11 3.44772 10.5509 2.99425 10.002 3.05548C7.98222 3.28079 6.08694 4.18514 4.63604 5.63604C2.94821 7.32387 2 9.61305 2 12C2 14.387 2.94821 16.6761 4.63604 18.364C6.08694 19.8149 7.98222 20.7192 10.002 20.9445C10.5509 21.0058 11 20.5523 11 20L11 4.00001Z" fill="#CDCDD0"/>
</svg>
