<svg width="24" height="24" viewBox="0 0 24 24" fill="none" xmlns="http://www.w3.org/2000/svg">
<path fill-rule="evenodd" clip-rule="evenodd" d="M18.557 13.3185C18.4887 13.3866 18.2337 13.6745 17.9942 13.9135C16.5969 15.4107 12.9485 17.8588 11.0399 18.608C10.7502 18.7276 10.0174 18.982 9.6246 19C9.24984 19 8.89182 18.9139 8.55055 18.7443C8.12428 18.5065 7.78429 18.1313 7.59627 17.6892C7.4765 17.3833 7.28847 16.4645 7.28847 16.4478C7.10174 15.4441 7 13.812 7 12.0077C7 10.2908 7.10174 8.72554 7.25499 7.70516C7.27173 7.68717 7.45976 6.54727 7.66452 6.1566C8.03928 5.44208 8.77205 5 9.55634 5H9.6246C10.1359 5.01671 11.2099 5.46007 11.2099 5.47549C13.0167 6.22471 16.5789 8.55462 18.0109 10.1032C18.0109 10.1032 18.4153 10.5016 18.5905 10.7496C18.8635 11.1068 19 11.5489 19 11.991C19 12.4845 18.8467 12.9433 18.557 13.3185Z" fill="#040415"/>
</svg>
