<svg width="24" height="24" viewBox="0 0 24 24" fill="none" xmlns="http://www.w3.org/2000/svg">
<path fill-rule="evenodd" clip-rule="evenodd" d="M12.7495 12.7083V17.257C12.7495 17.6673 12.4139 18 12 18C11.5861 18 11.2505 17.6673 11.2505 17.257V12.7083H6.67955C6.29342 12.6687 6 12.3461 6 11.9613C6 11.5765 6.29342 11.2539 6.67955 11.2143H11.2424V6.67365C11.2824 6.29088 11.6078 6 11.996 6C12.3842 6 12.7095 6.29088 12.7495 6.67365V11.2143H17.3205C17.7066 11.2539 18 11.5765 18 11.9613C18 12.3461 17.7066 12.6687 17.3205 12.7083H12.7495Z" fill="#040415"/>
</svg>
