<svg width="24" height="24" viewBox="0 0 24 24" fill="none" xmlns="http://www.w3.org/2000/svg">
<path fill-rule="evenodd" clip-rule="evenodd" d="M18.1291 10.7176C18.1232 10.7192 18.1172 10.7207 18.1111 10.7219C18.1044 10.7233 18.0977 10.7242 18.091 10.7251C18.0889 10.7254 18.0867 10.7257 18.0846 10.726C18.0821 10.7264 18.0796 10.7267 18.0771 10.7271C18.0724 10.7279 18.0676 10.7287 18.0627 10.7291C18.0463 10.7308 18.0298 10.7316 18.0134 10.7316H15.012C14.7357 10.7316 14.5117 10.5077 14.5117 10.2314C14.5117 9.95514 14.7357 9.73118 15.012 9.73118H16.8056L15.5373 8.46282C13.5825 6.51232 10.4177 6.51232 8.46293 8.46282C8.26756 8.65819 7.95081 8.65819 7.75545 8.46282C7.56008 8.26746 7.56008 7.9507 7.75545 7.75534C10.1013 5.41489 13.8989 5.41489 16.2448 7.75534L17.5131 9.02369V7.23001C17.5131 6.95373 17.7371 6.72977 18.0134 6.72977C18.2896 6.72977 18.5136 6.95373 18.5136 7.23001V10.2311C18.5136 10.2477 18.5128 10.2644 18.5111 10.2809C18.5107 10.2852 18.51 10.2893 18.5093 10.2935C18.509 10.2959 18.5086 10.2983 18.5082 10.3008C18.5069 10.3103 18.5057 10.3199 18.5039 10.3293C18.5023 10.3372 18.5001 10.3447 18.4982 10.3524C18.4977 10.3546 18.4972 10.3567 18.4967 10.3588C18.4952 10.3649 18.4938 10.3709 18.492 10.3768C18.4897 10.3844 18.4868 10.3917 18.4842 10.399C18.4813 10.4071 18.4787 10.4152 18.4754 10.4231C18.4735 10.4277 18.4713 10.4323 18.4691 10.4368C18.4681 10.4388 18.4672 10.4408 18.4662 10.4429C18.4655 10.4445 18.4647 10.4461 18.464 10.4477C18.4609 10.4543 18.4578 10.461 18.4543 10.4675C18.4522 10.4715 18.4499 10.4753 18.4475 10.4792C18.4463 10.4812 18.4451 10.4832 18.4439 10.4852C18.4391 10.4933 18.4345 10.5015 18.4291 10.5095C18.4263 10.5137 18.4233 10.5177 18.4202 10.5217C18.4188 10.5236 18.4174 10.5255 18.4159 10.5274C18.4145 10.5293 18.4131 10.5313 18.4117 10.5332C18.4079 10.5385 18.4041 10.5437 18.4 10.5488C18.3931 10.5571 18.3858 10.5649 18.3784 10.5727L18.377 10.5742C18.3755 10.5757 18.3742 10.5773 18.3728 10.5789C18.3709 10.581 18.3691 10.5831 18.3671 10.5852C18.3637 10.5885 18.36 10.5914 18.3565 10.5947L18.3558 10.5954C18.3476 10.6032 18.3394 10.6109 18.3307 10.6181C18.3259 10.622 18.321 10.6255 18.3161 10.629C18.3141 10.6305 18.3121 10.6319 18.3101 10.6334C18.3039 10.6381 18.2978 10.6429 18.2913 10.6472C18.2854 10.6512 18.2793 10.6548 18.2731 10.6584C18.2714 10.6594 18.2697 10.6604 18.268 10.6614C18.266 10.6626 18.2641 10.6637 18.2622 10.6649C18.258 10.6675 18.2537 10.6701 18.2493 10.6725C18.2432 10.6757 18.237 10.6786 18.2308 10.6815C18.2291 10.6823 18.2274 10.6831 18.2256 10.6839C18.2187 10.6871 18.212 10.6906 18.2049 10.6935C18.1993 10.6958 18.1936 10.6978 18.1879 10.6998C18.1859 10.7005 18.1839 10.7012 18.1819 10.7019C18.1742 10.7047 18.1665 10.7076 18.1586 10.71C18.1531 10.7117 18.1476 10.713 18.1421 10.7144C18.1399 10.7149 18.1378 10.7154 18.1356 10.716C18.1334 10.7165 18.1313 10.7171 18.1291 10.7176ZM8.46288 15.5372C10.4177 17.4877 13.5824 17.4877 15.5372 15.5372C15.7326 15.3418 16.0494 15.3418 16.2447 15.5372C16.4401 15.7325 16.4401 16.0493 16.2447 16.2446C13.8989 18.5851 10.1012 18.5851 7.75539 16.2446L6.48704 14.9763V16.77C6.48704 17.0463 6.26308 17.2702 5.98681 17.2702C5.71053 17.2702 5.48657 17.0463 5.48657 16.77V13.7689C5.48657 13.7523 5.48741 13.7356 5.48907 13.7191C5.48949 13.7148 5.49015 13.7107 5.49081 13.7065C5.4912 13.7041 5.49159 13.7017 5.49193 13.6992C5.49218 13.6974 5.49242 13.6956 5.49266 13.6938C5.49372 13.6861 5.49477 13.6783 5.49629 13.6706C5.49738 13.6652 5.49877 13.6598 5.50016 13.6545C5.50076 13.6522 5.50135 13.6499 5.50193 13.6475C5.50246 13.6454 5.50297 13.6433 5.50348 13.6412C5.50494 13.6351 5.5064 13.6291 5.5082 13.6231C5.50983 13.6178 5.51174 13.6126 5.51366 13.6073C5.51443 13.6052 5.51521 13.6031 5.51597 13.6009C5.51662 13.5991 5.51726 13.5973 5.5179 13.5954C5.52007 13.5892 5.52224 13.583 5.52477 13.5769C5.52671 13.5722 5.52888 13.5677 5.53106 13.5632C5.53203 13.5612 5.533 13.5591 5.53396 13.5571C5.5347 13.5555 5.53543 13.5539 5.53617 13.5523C5.53925 13.5457 5.54233 13.539 5.54582 13.5325C5.54796 13.5285 5.55031 13.5246 5.55266 13.5208C5.55387 13.5188 5.55509 13.5168 5.55628 13.5148C5.55726 13.5131 5.55823 13.5115 5.55921 13.5098C5.563 13.5033 5.56679 13.4968 5.57102 13.4905C5.57383 13.4863 5.57687 13.4823 5.57991 13.4783C5.58135 13.4764 5.58279 13.4745 5.58421 13.4726C5.58565 13.4706 5.58706 13.4687 5.58847 13.4667C5.59225 13.4615 5.59604 13.4563 5.60018 13.4512C5.60701 13.4429 5.61439 13.4351 5.62177 13.4273L5.62314 13.4258C5.62461 13.4242 5.62601 13.4226 5.6274 13.421C5.62923 13.4189 5.63106 13.4168 5.63306 13.4148C5.63494 13.413 5.63691 13.4112 5.63888 13.4095C5.64042 13.4082 5.64195 13.4069 5.64344 13.4055L5.64416 13.4048C5.65244 13.397 5.66072 13.3891 5.66952 13.3819C5.67413 13.3781 5.67891 13.3747 5.68368 13.3712C5.68567 13.3698 5.68766 13.3683 5.68964 13.3669C5.69151 13.3655 5.69336 13.3641 5.69522 13.3627C5.69971 13.3593 5.7042 13.3558 5.7089 13.3527C5.71454 13.3489 5.72033 13.3455 5.72612 13.3421C5.72793 13.3411 5.72974 13.34 5.73154 13.3389C5.73347 13.3378 5.73539 13.3366 5.7373 13.3355C5.74181 13.3327 5.74632 13.33 5.75099 13.3275C5.75653 13.3245 5.7622 13.3219 5.76787 13.3192C5.76975 13.3184 5.77164 13.3175 5.77352 13.3166C5.77541 13.3157 5.77729 13.3148 5.77917 13.3139C5.78456 13.3113 5.78994 13.3087 5.79549 13.3064C5.8005 13.3043 5.80559 13.3026 5.81069 13.3008C5.81275 13.3001 5.81481 13.2993 5.81686 13.2986C5.81867 13.2979 5.82048 13.2973 5.82229 13.2966C5.82875 13.2942 5.8352 13.2919 5.84182 13.2899C5.84645 13.2885 5.85113 13.2873 5.85581 13.2862C5.85806 13.2857 5.8603 13.2851 5.86254 13.2845C5.8645 13.284 5.86646 13.2835 5.86841 13.283C5.87533 13.2812 5.88225 13.2794 5.88933 13.278C5.89455 13.277 5.89981 13.2762 5.90507 13.2755C5.90746 13.2752 5.90984 13.2749 5.91223 13.2745C5.91468 13.2741 5.91712 13.2737 5.91955 13.2734C5.92559 13.2724 5.93162 13.2714 5.93777 13.2708C5.95039 13.2696 5.96306 13.2692 5.97573 13.2689C5.97743 13.2689 5.9791 13.2687 5.98077 13.2686C5.98277 13.2685 5.98476 13.2683 5.9868 13.2683H8.98821C9.26448 13.2683 9.48844 13.4923 9.48844 13.7686C9.48844 14.0448 9.26448 14.2688 8.98821 14.2688H7.19452L8.46288 15.5372Z" fill="#040415"/>
</svg>
