<svg width="24" height="24" viewBox="0 0 24 24" fill="none" xmlns="http://www.w3.org/2000/svg">
<path fill-rule="evenodd" clip-rule="evenodd" d="M12.086 22C11.9622 22 11.8393 21.9716 11.7276 21.9137L8.12627 20.0496C7.10336 19.5201 6.30397 18.9259 5.68076 18.2336C4.31353 16.7195 3.55441 14.776 3.54132 12.7599L3.50004 6.12426C3.495 5.35842 3.98833 4.67103 4.72732 4.41215L11.34 2.10679C11.7336 1.96656 12.1716 1.9646 12.5703 2.09992L19.2081 4.32684C19.9511 4.57493 20.4535 5.25742 20.4575 6.02228L20.4998 12.6628C20.5129 14.676 19.7799 16.6274 18.4349 18.1581C17.8167 18.8602 17.0253 19.4632 16.0135 20.0025L12.4444 21.9088C12.3337 21.9686 12.2098 21.999 12.086 22Z" fill="#CDCDD0"/>
<path fill-rule="evenodd" clip-rule="evenodd" d="M13.0679 11.7249L14.426 10.4021C14.721 10.1148 14.721 9.64995 14.426 9.36264C14.131 9.07533 13.6528 9.07533 13.3578 9.36264L11.9996 10.6845L10.6425 9.36264C10.3475 9.07533 9.86926 9.07533 9.57427 9.36264C9.27928 9.64995 9.27928 10.1148 9.57427 10.4021L10.9324 11.7249L9.57427 13.0477C9.27928 13.335 9.27928 13.7998 9.57427 14.0871C9.72227 14.2313 9.91557 14.3028 10.1089 14.3028C10.3012 14.3028 10.4945 14.2313 10.6425 14.0871L11.9996 12.7653L13.3578 14.0871C13.5058 14.2313 13.6981 14.3028 13.8914 14.3028C14.0847 14.3028 14.278 14.2313 14.426 14.0871C14.721 13.7998 14.721 13.335 14.426 13.0477L13.0679 11.7249Z" fill="#040415"/>
</svg>
