<svg width="24" height="24" viewBox="0 0 24 24" fill="none" xmlns="http://www.w3.org/2000/svg">
<path d="M10.6089 2.9382C11.1139 1.68645 12.8861 1.68645 13.3911 2.9382L15.3284 7.74032C15.3991 7.91575 15.5628 8.03622 15.7514 8.0516L20.6175 8.44866C21.9369 8.55632 22.4802 10.1957 21.4862 11.07L17.7937 14.3177C17.657 14.4379 17.5965 14.6228 17.6356 14.8006L18.8163 20.1676C19.1113 21.5083 17.5996 22.5081 16.4814 21.7119L12.29 18.7276C12.1164 18.604 11.8836 18.604 11.71 18.7276L7.51866 21.7119C6.40041 22.5081 4.88872 21.5083 5.18368 20.1676L6.36445 14.8006C6.40356 14.6228 6.343 14.4379 6.20634 14.3177L2.5137 11.07C1.51964 10.1958 2.0629 8.55632 3.38234 8.44866L8.24864 8.0516C8.43718 8.03622 8.6009 7.91575 8.67167 7.74032L10.6089 2.9382Z" fill="#CDCDD0"/>
</svg>
