<svg width="24" height="24" viewBox="0 0 24 24" fill="none" xmlns="http://www.w3.org/2000/svg">
<path fill-rule="evenodd" clip-rule="evenodd" d="M8.23918 8.70907V7.36726C8.24934 5.37044 9.92597 3.73939 11.9989 3.73939C13.5841 3.73939 15.0067 4.72339 15.5249 6.19541C15.6976 6.65262 16.2057 6.89017 16.663 6.73213C16.8865 6.66156 17.0694 6.50253 17.171 6.29381C17.2727 6.08508 17.293 5.84654 17.2117 5.62787C16.4394 3.46208 14.3462 2 11.9786 2C8.95048 2 6.48126 4.41626 6.46094 7.38714V8.91084L8.23918 8.70907Z" fill="#CDCDD0"/>
<path fill-rule="evenodd" clip-rule="evenodd" d="M12.8891 16.4538C12.8891 16.9409 12.4928 17.3285 11.9949 17.3285C11.5072 17.3285 11.1109 16.9409 11.1109 16.4538V14.2473C11.1109 13.7702 11.5072 13.3826 11.9949 13.3826C12.4928 13.3826 12.8891 13.7702 12.8891 14.2473V16.4538ZM16.2312 8.71106H7.7688C5.41136 8.71106 3.5 10.5807 3.5 12.8866V17.8245C3.5 20.1304 5.41136 22 7.7688 22H16.2312C18.5886 22 20.5 20.1304 20.5 17.8245V12.8866C20.5 10.5807 18.5886 8.71106 16.2312 8.71106Z" fill="#040415"/>
</svg>
