<svg width="24" height="24" viewBox="0 0 24 24" fill="none" xmlns="http://www.w3.org/2000/svg">
<path fill-rule="evenodd" clip-rule="evenodd" d="M2.00024 11.0785C2.05024 13.4165 2.19024 17.4155 2.21024 17.8565C2.28124 18.7995 2.64224 19.7525 3.20424 20.4245C3.98624 21.3675 4.94924 21.7885 6.29224 21.7885C8.14824 21.7985 10.1942 21.7985 12.1812 21.7985C14.1762 21.7985 16.1122 21.7985 17.7472 21.7885C19.0712 21.7885 20.0642 21.3565 20.8362 20.4245C21.3982 19.7525 21.7592 18.7895 21.8102 17.8565C21.8302 17.4855 21.9302 13.1445 21.9902 11.0785H2.00024Z" fill="#CDCDD0"/>
<path fill-rule="evenodd" clip-rule="evenodd" d="M13.2862 3.50043H10.7042C10.0312 3.50043 9.46924 3.96043 9.30124 4.58143H14.6882C14.5202 3.96043 13.9582 3.50043 13.2862 3.50043ZM10.2112 14.5564C10.1112 14.9194 9.76224 15.1514 9.38424 15.1014C6.83324 14.7454 4.39524 13.8404 2.33724 12.4814C2.12624 12.3434 2.00024 12.1074 2.00024 11.8554V8.38943C2.00024 6.28943 3.71224 4.58143 5.81724 4.58143H7.78424C7.97224 3.12943 9.20224 2.00043 10.7042 2.00043H13.2862C14.7872 2.00043 16.0182 3.12943 16.2062 4.58143H18.1832C20.2822 4.58143 21.9902 6.28943 21.9902 8.38943V11.8554C21.9902 12.1074 21.8632 12.3424 21.6542 12.4814C19.5922 13.8464 17.1442 14.7554 14.5762 15.1104C14.5412 15.1154 14.5072 15.1174 14.4732 15.1174C14.1342 15.1174 13.8312 14.8884 13.7462 14.5524C13.5442 13.7564 12.8212 13.1994 11.9902 13.1994C11.1482 13.1994 10.4332 13.7444 10.2112 14.5564ZM11.2453 16.6782V15.3842C11.2453 14.9702 11.5813 14.6342 11.9953 14.6342C12.4093 14.6342 12.7453 14.9702 12.7453 15.3842V16.6782C12.7453 17.0922 12.4093 17.4282 11.9953 17.4282C11.5813 17.4282 11.2453 17.0922 11.2453 16.6782Z" fill="#040415"/>
</svg>
